<?xml version="1.0" encoding="UTF-8" standalone="no"?>
<!-- Generator: Adobe Illustrator 19.2.1, SVG Export Plug-In . SVG Version: 6.00 Build 0)  -->

<svg
   version="1.1"
   id="layer"
   x="0px"
   y="0px"
   viewBox="0 0 327.70001 196.10001"
   xml:space="preserve"
   sodipodi:docname="first-logo.svg"
   inkscape:version="1.1.2 (0a00cf5339, 2022-02-04)"
   width="327.70001"
   height="196.10001"
   xmlns:inkscape="http://www.inkscape.org/namespaces/inkscape"
   xmlns:sodipodi="http://sodipodi.sourceforge.net/DTD/sodipodi-0.dtd"
   xmlns="http://www.w3.org/2000/svg"
   xmlns:svg="http://www.w3.org/2000/svg"><defs
   id="defs87" /><sodipodi:namedview
   id="namedview85"
   pagecolor="#ffffff"
   bordercolor="#666666"
   borderopacity="1.0"
   inkscape:pageshadow="2"
   inkscape:pageopacity="0.0"
   inkscape:pagecheckerboard="0"
   showgrid="false"
   inkscape:zoom="1.24"
   inkscape:cx="177.01613"
   inkscape:cy="256.45161"
   inkscape:window-width="1920"
   inkscape:window-height="1009"
   inkscape:window-x="0"
   inkscape:window-y="0"
   inkscape:window-maximized="1"
   inkscape:current-layer="g321"
   fit-margin-top="0"
   fit-margin-left="0"
   fit-margin-right="0"
   fit-margin-bottom="0" />
<style
   type="text/css"
   id="style2">
	.st0{fill:#99999A;}
	.st1{fill:#FFFFFF;}
	.st2{fill:#E60012;}
	.st3{fill:#005BAC;}
</style>
<g
   id="g321"
   transform="translate(-156.9,-71.7)"><path
     class="st0"
     d="m 314.5,134 c 5.8,0 11.4,0.5 16.7,1.5 l 12.7,-13.2 c -8.9,-3.1 -18.9,-4.8 -29.4,-4.8 -17.9,0 -34.2,5 -46.3,13.1 l 11.1,10.5 c 10.2,-4.5 22.3,-7.1 35.2,-7.1"
     id="path42" /><path
     class="st1"
     d="m 314.5,117.4 c 10.6,0 20.5,1.7 29.4,4.8 l 13.8,-14.4 c -12.9,-5.1 -27.6,-8 -43.3,-8 -23.3,0 -44.6,6.4 -60.8,17 l 14.5,13.7 c 12.2,-8.1 28.5,-13.1 46.4,-13.1"
     id="path44" /><path
     class="st0"
     d="m 248.1,173.7 c 1.2,-4.8 3.3,-9.3 6.3,-13.4 l -5.6,-5.6 c -1.1,3.5 -1.7,7.1 -1.7,10.8 0,2.8 0.4,5.6 1,8.2"
     id="path46" /><path
     class="st0"
     d="M 207,204.9 204.7,217 228,207 c -1.5,-3.1 -1.8,-7.1 -2.6,-10.4 z"
     id="path48" /><polygon
     class="st0"
     points="156.9,257.5 172.8,258.8 206.2,71.7 190.6,73.1 "
     id="polygon50" /><path
     class="st2"
     d="M 303.8,179.2 V 164.3 L 279.3,141.1 268.2,130.6 253.7,116.9 206,71.7 l -33.4,187.1 70.6,-31 c -7,-6.2 -12,-12.8 -15.7,-20.6 l -23,9.9 2.3,-12.1 14.9,-77.6 1.2,-6.5 12.3,12.4 15.8,15.9 6.8,6.8 27.9,24 -27.1,12.4 c 7,7 15.4,13.2 26.6,16.7 L 319,193.9 Z"
     id="path52" /><path
     class="st0"
     d="m 380.9,173.7 c 0.7,-2.7 1,-5.5 1,-8.3 0,-8.3 -3,-16.2 -8.3,-23 l -8,8.3 c 7.7,6.5 13.2,14.4 15.3,23"
     id="path54" /><path
     class="st0"
     d="m 396,252.7 -19,-18.3 c -3,2.1 -6.3,4 -9.7,5.8 l 28.7,27.6 88.6,-92.3 -0.1,-14.9 z"
     id="path56" /><path
     class="st0"
     d="m 331.5,190.7 -15.7,-15 -12,-11.4 v 14.9 l 16.9,16.2 16.1,15.5 c 4.1,-1 8,-2.3 11.7,-3.8 z"
     id="path58" /><polygon
     class="st0"
     points="393,122.3 441.7,169 449.3,161.2 393,107.3 380.4,120.4 366.5,134.9 357,144.8 339.1,163.5 346.6,170.7 365.7,150.8 373.7,142.5 388.4,127.2 "
     id="polygon60" /><path
     class="st1"
     d="m 388.4,127.2 -14.6,15.2 c 5.2,6.8 8.2,14.7 8.2,23 0,2.8 -0.4,5.6 -1,8.3 -1.7,7 -5.5,13.5 -11,19.1 -5.6,5.8 -12.9,10.6 -21.5,14.1 -3.7,1.5 -7.6,2.8 -11.7,3.8 -6.9,1.7 -14.4,2.7 -22.2,2.7 -9.6,0 -18.7,-1.4 -26.9,-4 -11.2,-3.5 -20.9,-9.1 -27.9,-16.2 -2.6,-2.6 -4.8,-5.3 -6.6,-8.2 -2.3,-3.6 -3.9,-7.4 -4.9,-11.4 -0.7,-2.7 -1,-5.5 -1,-8.3 0,-3.7 0.6,-7.3 1.7,-10.8 l -16.8,-17 c -6.2,9.1 -9.6,19.4 -9.6,30.3 0,2.8 0.3,5.6 0.7,8.3 1.1,6.6 3.4,12.9 6.9,18.7 1.7,3 3.7,5.8 6,8.5 5.9,7.1 13.5,13.4 22.5,18.5 15.5,8.8 35,14.1 56.1,14.1 14.8,0 28.7,-2.6 41.1,-7.1 3.8,-1.4 7.4,-3 10.8,-4.7 8,-4 15,-9 21,-14.6 9.9,-9.5 16.5,-20.9 18.6,-33.4 0.4,-2.7 0.7,-5.5 0.7,-8.3 -0.3,-15.1 -7.2,-29.2 -18.6,-40.6"
     id="path62" /><path
     class="st3"
     d="m 331.4,190.8 16.9,16.2 c 8.5,-3.6 15.9,-8.3 21.5,-14.1 l -23.2,-22.3 -7.5,-7.2 17.9,-18.6 9.5,-9.9 13.9,-14.5 12.6,-13.1 56.1,53.9 -7.5,7.8 -46,47.9 c -4.8,6.6 -11.1,12.5 -18.5,17.6 l 18.9,18.2 88.6,-92.2 -92.4,-88.5 -34.5,36 -13.8,14.4 -12.7,13.3 -27.3,28.6 z"
     id="path64" /><path
     class="st0"
     d="m 253.4,185.6 0.5,0.8 c 1.4,2.2 3.2,4.1 5,6.1 l 27.6,-12.7 -63.3,-59 -1.7,9.1 49.7,49.2 z"
     id="path66" /><path
     class="st0"
     d="m 406.7,168 c 0,2.8 -0.3,5.6 -0.7,8.3 -2,12.5 -8.7,23.9 -18.6,33.4 -5.9,5.6 -13,10.6 -21,14.6 -3.4,1.7 -7,3.3 -10.8,4.7 -12.4,4.6 -26.3,7.1 -41.1,7.1 -21.1,0 -40.6,-5.3 -56.1,-14.1 -8.9,-5.1 -16.6,-11.4 -22.5,-18.5 -2.3,-2.7 -4.3,-5.6 -6,-8.5 -3.4,-5.9 -5.8,-12.2 -6.9,-18.7 -0.4,-2.7 -0.7,-5.5 -0.7,-8.3 0,-0.9 0.1,-1.8 0.1,-2.6 v -0.2 c -0.5,2.7 -0.1,16.5 -0.1,19.3 0,4.4 0.6,8.8 1.7,13 0.9,3.3 2,6.5 3.5,9.6 3.7,7.8 9.3,15 16.3,21.2 16.9,14.9 42.3,24.4 70.7,24.4 19.7,0 37.9,-4.6 52.9,-12.4 3.4,-1.8 6.6,-3.7 9.7,-5.8 7.4,-5.1 13.7,-11.1 18.6,-17.7 7,-9.6 11,-20.6 11,-32.3 0,-2.5 0.2,-14.1 0,-18.8 -0.1,-0.6 0,1.5 0,2.3"
     id="path68" /></g>
</svg>
