<?xml version="1.0" encoding="UTF-8" standalone="no"?>
<svg
   width="136"
   height="136"
   viewBox="0 0 136 136"
   version="1.1"
   id="SVGRoot"
   xmlns="http://www.w3.org/2000/svg"
   xmlns:svg="http://www.w3.org/2000/svg"
   xmlns:rdf="http://www.w3.org/1999/02/22-rdf-syntax-ns#"
   xmlns:cc="http://creativecommons.org/ns#"
   xmlns:dc="http://purl.org/dc/elements/1.1/">
  <title
     id="title4270">StuyPulse Battery</title>
  <defs
     id="defs10">
    <marker
       style="overflow:visible"
       id="Arrow1Lstart"
       refX="0"
       refY="0"
       orient="auto">
      <path
         transform="matrix(0.8,0,0,0.8,10,0)"
         style="fill:#ff0000;fill-opacity:1;fill-rule:evenodd;stroke:#ff0000;stroke-width:1pt;stroke-opacity:1"
         d="M 0,0 5,-5 -12.5,0 5,5 Z"
         id="path894" />
    </marker>
  </defs>
  <metadata
     id="metadata13">
    <rdf:RDF>
      <cc:Work
         rdf:about="">
        <dc:format>image/svg+xml</dc:format>
        <dc:type
           rdf:resource="http://purl.org/dc/dcmitype/StillImage" />
        <dc:title>StuyPulse Battery</dc:title>
        <dc:date>May 16, 2021</dc:date>
        <dc:creator>
          <cc:Agent>
            <dc:title>Remade By: Sam Belliveau</dc:title>
          </cc:Agent>
        </dc:creator>
        <dc:rights>
          <cc:Agent>
            <dc:title>StuyPulse 2021</dc:title>
          </cc:Agent>
        </dc:rights>
      </cc:Work>
    </rdf:RDF>
  </metadata>
  <g
     id="layer1"
     transform="translate(4,4)">
    <path
       id="path868"
       style="display:inline;opacity:1;font-weight:normal;font-size:57.3029px;line-height:1.25;font-family:FuturaFuturisC;-inkscape-font-specification:FuturaFuturisC;letter-spacing:0px;fill:#ff0000;fill-opacity:1;stroke-width:0.800323;font-style:normal;font-variant:normal;font-stretch:normal"
       d="M 34 4 A 12 12 0 0 0 22 16 A 12 12 0 0 0 29.285156 26.988281 A 12 12 0 0 0 30 27.314453 L 30 44 L 28 44 C 14.745166 44 4 54.745166 4 68 L 4 108 C 3.9999264 114.36522 6.5284416 120.46977 11.029297 124.9707 C 15.530227 129.47156 21.634775 132.00007 28 132 L 108 132 C 121.25483 132 132 121.25483 132 108 L 132 68 C 132 54.745166 121.25483 44 108 44 L 106 44 L 106 27.3125 A 12 12 0 0 0 114 16 A 12 12 0 0 0 102 4 A 12 12 0 0 0 90.152344 14.25 L 86 14.25 A 1.750175 1.750175 0 0 0 84.390625 15.310547 L 83 18.554688 L 78.609375 8.3105469 A 1.750175 1.750175 0 0 0 75.390625 8.3105469 L 71 18.554688 L 66.609375 8.3105469 A 1.750175 1.750175 0 0 0 63.390625 8.3105469 L 59 18.554688 L 54.609375 8.3105469 A 1.750175 1.750175 0 0 0 53.037109 7.25 A 1.750175 1.750175 0 0 0 51.390625 8.3105469 L 48.845703 14.25 L 45.867188 14.25 A 12 12 0 0 0 34 4 z M 53 13.445312 L 57.390625 23.689453 A 1.750175 1.750175 0 0 0 60.609375 23.689453 L 65 13.445312 L 69.390625 23.689453 A 1.750175 1.750175 0 0 0 72.609375 23.689453 L 77 13.445312 L 81.390625 23.689453 A 1.750175 1.750175 0 0 0 84.609375 23.689453 L 87.154297 17.75 L 90.154297 17.75 A 12 12 0 0 0 98 27.314453 L 98 44 L 38 44 L 38 27.3125 A 12 12 0 0 0 38.710938 26.988281 A 12 12 0 0 0 45.845703 17.75 L 50 17.75 A 1.750175 1.750175 0 0 0 51.609375 16.689453 L 53 13.445312 z M 28 54 L 108 54 C 115.73199 54 122 60.268014 122 68 L 122 108 C 122 115.73199 115.73199 122 108 122 L 28 122 C 24.286787 122.00048 20.725484 120.52579 18.099609 117.90039 C 15.474209 115.27451 13.999525 111.71321 14 108 L 14 68 C 14 60.268014 20.268014 54 28 54 z M 42.138672 66 L 27.998047 85.853516 C 25.33219 89.629488 24 93.146991 24 96.40625 C 24 100.46045 25.314185 103.74008 27.941406 106.24414 C 30.568628 108.74821 33.832178 110 37.734375 110 C 41.868384 110 45.153846 108.66891 47.587891 106.00586 C 50.021934 103.34281 51.238281 100.00273 51.238281 95.988281 C 51.238281 91.65585 50.001976 88.357379 47.529297 86.091797 C 45.056617 83.826214 42.196564 82.693359 38.951172 82.693359 C 38.294367 82.693359 37.61927 82.753806 36.923828 82.873047 L 46.601562 69.457031 L 42.138672 66 z M 69.677734 66 C 65.505088 66 62.181663 67.331087 59.708984 69.994141 C 57.236304 72.657194 56 75.976466 56 79.951172 C 56 84.124614 57.274268 87.40424 59.824219 89.789062 C 62.374169 92.134141 65.272188 93.306641 68.517578 93.306641 C 69.135748 93.306641 69.734919 93.246195 70.314453 93.126953 L 60.636719 106.54297 L 65.099609 110 L 79.240234 90.146484 C 81.906092 86.370513 83.238281 82.853008 83.238281 79.59375 C 83.238281 75.937019 82.03994 72.757488 79.644531 70.054688 C 77.249123 67.351887 73.927652 66 69.677734 66 z M 107.8418 66 L 82.666016 104.13281 L 102.10938 104.13281 L 102.10938 110 L 107.8418 110 L 107.8418 104.13281 L 112 104.13281 L 112 98.501953 L 107.8418 98.501953 L 107.8418 66 z M 69.619141 71.722656 C 71.821371 71.722656 73.61693 72.477892 75.007812 73.988281 C 76.398694 75.458924 77.095703 77.347014 77.095703 79.652344 C 77.095703 82.037166 76.398694 83.964905 75.007812 85.435547 C 73.655566 86.866441 71.897969 87.582031 69.734375 87.582031 C 67.454874 87.582031 65.619398 86.847594 64.228516 85.376953 C 62.837634 83.906312 62.142578 81.99742 62.142578 79.652344 C 62.142578 77.347014 62.837634 75.458924 64.228516 73.988281 C 65.619398 72.477892 67.416911 71.722656 69.619141 71.722656 z M 102.10938 84.65625 L 102.10938 98.501953 L 93.119141 98.501953 L 102.10938 84.65625 z M 37.560547 88.417969 C 39.801412 88.417969 41.61693 89.152406 43.007812 90.623047 C 44.398694 92.093689 45.095703 94.00258 45.095703 96.347656 C 45.095703 98.652986 44.398694 100.55992 43.007812 102.07031 C 41.61693 103.54095 39.82137 104.27734 37.619141 104.27734 C 35.41691 104.27734 33.619396 103.54095 32.228516 102.07031 C 30.837632 100.55992 30.142578 98.652986 30.142578 96.347656 C 30.142578 94.00258 30.837632 92.093689 32.228516 90.623047 C 33.619396 89.152406 35.396953 88.417969 37.560547 88.417969 z "
       transform="translate(-4,-4)" />
  </g>
</svg>
