<?xml version="1.0" encoding="UTF-8" standalone="no"?>
<!-- Generator: Adobe Illustrator 16.0.3, SVG Export Plug-In . SVG Version: 6.00 Build 0)  -->

<svg
   version="1.1"
   id="Layer_1"
   x="0px"
   y="0px"
   width="72px"
   height="112px"
   viewBox="0 0 72 112"
   enable-background="new 0 0 72 112"
   xml:space="preserve"
   sodipodi:docname="tba_lamp.svg"
   inkscape:version="1.1.1 (3bf5ae0d25, 2021-09-20)"
   xmlns:inkscape="http://www.inkscape.org/namespaces/inkscape"
   xmlns:sodipodi="http://sodipodi.sourceforge.net/DTD/sodipodi-0.dtd"
   xmlns="http://www.w3.org/2000/svg"
   xmlns:svg="http://www.w3.org/2000/svg"><defs
   id="defs38" /><sodipodi:namedview
   id="namedview36"
   pagecolor="#ffffff"
   bordercolor="#666666"
   borderopacity="1.0"
   inkscape:pageshadow="2"
   inkscape:pageopacity="0.0"
   inkscape:pagecheckerboard="0"
   showgrid="false"
   showguides="false"
   inkscape:zoom="6.4196429"
   inkscape:cx="31.543811"
   inkscape:cy="55.22114"
   inkscape:window-width="1920"
   inkscape:window-height="1094"
   inkscape:window-x="-11"
   inkscape:window-y="-11"
   inkscape:window-maximized="1"
   inkscape:current-layer="Layer_1" />
<g
   id="g33">
	<g
   id="g4">
		<rect
   x="8"
   y="20"
   fill="#FFFFFF"
   width="6"
   height="64"
   id="rect2" />
	</g>
	<g
   id="g8">
		<rect
   x="58"
   y="20"
   fill="#FFFFFF"
   width="6"
   height="64"
   id="rect6" />
	</g>
	<g
   id="g12">
		<path
   fill="#FFFFFF"
   d="M36,112C20.561,112,8,99.439,8,84h6c0,12.131,9.869,22,22,22V112z"
   id="path10" />
	</g>
	<g
   id="g16">
		<path
   fill="#FFFFFF"
   d="M36,112v-6c12.131,0,22-9.869,22-22h6C64,99.439,51.439,112,36,112z"
   id="path14" />
	</g>
	<g
   id="g20">
		<rect
   x="33"
   y="20"
   fill="#FFFFFF"
   width="6"
   height="89"
   id="rect18" />
	</g>
	<g
   id="g24">
		<rect
   x="11"
   y="78"
   fill="#FFFFFF"
   width="50"
   height="6"
   id="rect22" />
	</g>
	<g
   id="g28">
		<rect
   x="11"
   y="50"
   fill="#FFFFFF"
   width="50"
   height="6"
   id="rect26" />
	</g>
	<g
   id="Lamp_Rectangle_4_">
		<path
   fill="#FFFFFF"
   d="M72,24c0,2.2-1.8,4-4,4H4c-2.2,0-4-1.8-4-4V4c0-2.2,1.8-4,4-4h64c2.2,0,4,1.8,4,4V24z"
   id="path30" />
	</g>
</g>
<path
   style="fill:#e00000;stroke:none;stroke-width:0.155772;fill-opacity:1"
   d="m 32.945758,111.90314 c -5.336702,-0.61361 -10.370929,-2.69427 -14.510636,-5.99727 -1.60172,-1.27799 -3.633032,-3.38241 -4.886652,-5.06253 C 10.282165,96.46579 8.4755324,91.649879 8.0268551,86.124461 7.924791,84.867551 7.8664812,73.969054 7.8664812,56.149472 v -28 L 5.4130737,28.092407 C 2.5912432,28.026773 1.9092718,27.81131 0.94028668,26.679269 -0.11747085,25.443517 -0.0908873,25.794552 -0.04305227,13.694304 -2.5161836e-4,2.8675427 0.00196863,2.8002527 0.33683665,2.1808067 0.7339153,1.4462822 1.4976448,0.69490719 2.2586926,0.29003998 2.7855064,0.00978216 3.9229341,0 35.98331,0 h 33.179416 l 0.63133,0.33798995 c 0.782912,0.4191425 1.525203,1.16582655 1.892742,1.90394505 0.260058,0.5222674 0.282788,1.3405881 0.32182,11.585788 0.04173,10.953796 0.03989,11.028735 -0.290245,11.796146 -0.182735,0.424775 -0.633084,1.049624 -1.000779,1.388554 -0.960257,0.885134 -1.846736,1.104406 -4.464921,1.104406 h -2.152534 v 28.489755 c 0,18.753766 -0.05585,29.041031 -0.163426,30.10292 -1.353587,13.361186 -11.777701,23.849636 -25.049184,25.203786 -1.849958,0.18876 -4.247442,0.18466 -5.941771,-0.0102 z m 0,-17.03805 V 84.038943 h -9.447616 -9.447616 l 0.101811,1.518776 c 0.560831,8.3663 6.250008,15.951331 14.23222,18.974941 1.059947,0.4015 3.778341,1.12946 4.2886,1.14844 0.257102,0.01 0.272601,-0.60538 0.272601,-10.81601 z m 8.03333,10.44567 c 2.00078,-0.48474 3.34656,-0.99375 5.181767,-1.95989 6.68548,-3.519566 11.245482,-10.474323 11.66637,-17.793151 l 0.08734,-1.518776 H 48.467713 39.020862 V 94.86509 c 0,8.55718 0.04081,10.82611 0.194715,10.82595 0.107093,-1.2e-4 0.900673,-0.17124 1.763511,-0.38028 z M 32.945758,66.981919 V 56 h -9.4242 -9.424201 v 10.981919 10.98192 h 9.424201 9.4242 z m 24.923505,0 V 56 h -9.4242 -9.424201 v 10.981919 10.98192 h 9.424201 9.4242 z M 32.945758,39.020862 V 28.116829 h -9.4242 -9.424201 v 10.904033 10.904034 h 9.424201 9.4242 z m 24.923505,0 V 28.116829 h -9.4242 -9.424201 v 10.904033 10.904034 h 9.424201 9.4242 z"
   id="path765" /></svg>
